<mxfile host="Electron" agent="Mozilla/5.0 (X11; Linux x86_64) AppleWebKit/537.36 (KHTML, like Gecko) draw.io/28.2.5 Chrome/138.0.7204.251 Electron/37.6.1 Safari/537.36" version="28.2.5">
  <diagram name="Page-1" id="6iNKvXD6GgjHAmLb_haw">
    <mxGraphModel dx="983" dy="528" grid="1" gridSize="10" guides="1" tooltips="1" connect="1" arrows="1" fold="1" page="1" pageScale="1" pageWidth="850" pageHeight="1100" math="0" shadow="0">
      <root>
        <mxCell id="0" />
        <mxCell id="1" parent="0" />
        <mxCell id="pGwgiXR_y_PXAJWsyPDp-1" value="" style="whiteSpace=wrap;html=1;" vertex="1" parent="1">
          <mxGeometry x="90" y="100" width="400" height="400" as="geometry" />
        </mxCell>
        <mxCell id="pGwgiXR_y_PXAJWsyPDp-2" value="Exercise list" style="whiteSpace=wrap;html=1;" vertex="1" parent="1">
          <mxGeometry x="230" y="180" width="230" height="310" as="geometry" />
        </mxCell>
        <mxCell id="pGwgiXR_y_PXAJWsyPDp-3" value="Searchbox" style="rounded=0;whiteSpace=wrap;html=1;" vertex="1" parent="1">
          <mxGeometry x="230" y="150" width="150" height="20" as="geometry" />
        </mxCell>
        <mxCell id="pGwgiXR_y_PXAJWsyPDp-4" value="Button" style="rounded=0;whiteSpace=wrap;html=1;" vertex="1" parent="1">
          <mxGeometry x="385" y="150" width="75" height="20" as="geometry" />
        </mxCell>
        <mxCell id="pGwgiXR_y_PXAJWsyPDp-5" value="Tag" style="rounded=0;whiteSpace=wrap;html=1;" vertex="1" parent="1">
          <mxGeometry x="100" y="180" width="100" height="30" as="geometry" />
        </mxCell>
        <mxCell id="pGwgiXR_y_PXAJWsyPDp-6" value="Tag" style="rounded=0;whiteSpace=wrap;html=1;" vertex="1" parent="1">
          <mxGeometry x="100" y="220" width="100" height="30" as="geometry" />
        </mxCell>
        <mxCell id="pGwgiXR_y_PXAJWsyPDp-7" value="Tag" style="rounded=0;whiteSpace=wrap;html=1;" vertex="1" parent="1">
          <mxGeometry x="100" y="260" width="100" height="30" as="geometry" />
        </mxCell>
        <mxCell id="pGwgiXR_y_PXAJWsyPDp-8" value="Tag" style="rounded=0;whiteSpace=wrap;html=1;" vertex="1" parent="1">
          <mxGeometry x="100" y="300" width="100" height="30" as="geometry" />
        </mxCell>
        <mxCell id="pGwgiXR_y_PXAJWsyPDp-9" value="Tag" style="rounded=0;whiteSpace=wrap;html=1;" vertex="1" parent="1">
          <mxGeometry x="100" y="340" width="100" height="30" as="geometry" />
        </mxCell>
        <mxCell id="pGwgiXR_y_PXAJWsyPDp-10" value="Tag" style="rounded=0;whiteSpace=wrap;html=1;" vertex="1" parent="1">
          <mxGeometry x="100" y="380" width="100" height="30" as="geometry" />
        </mxCell>
        <mxCell id="pGwgiXR_y_PXAJWsyPDp-12" value="" style="rounded=1;whiteSpace=wrap;html=1;" vertex="1" parent="1">
          <mxGeometry x="210" y="180" width="10" height="310" as="geometry" />
        </mxCell>
        <mxCell id="pGwgiXR_y_PXAJWsyPDp-15" value="" style="rounded=1;whiteSpace=wrap;html=1;fillColor=#f5f5f5;strokeColor=#666666;gradientColor=#b3b3b3;" vertex="1" parent="1">
          <mxGeometry x="210" y="180" width="10" height="60" as="geometry" />
        </mxCell>
        <mxCell id="pGwgiXR_y_PXAJWsyPDp-16" value="+" style="rounded=0;whiteSpace=wrap;html=1;" vertex="1" parent="1">
          <mxGeometry x="465" y="150" width="20" height="20" as="geometry" />
        </mxCell>
        <mxCell id="pGwgiXR_y_PXAJWsyPDp-17" value="" style="rounded=1;whiteSpace=wrap;html=1;" vertex="1" parent="1">
          <mxGeometry x="470" y="180" width="10" height="310" as="geometry" />
        </mxCell>
        <mxCell id="pGwgiXR_y_PXAJWsyPDp-18" value="" style="rounded=1;whiteSpace=wrap;html=1;fillColor=#f5f5f5;strokeColor=#666666;gradientColor=#b3b3b3;" vertex="1" parent="1">
          <mxGeometry x="470" y="180" width="10" height="60" as="geometry" />
        </mxCell>
        <mxCell id="pGwgiXR_y_PXAJWsyPDp-19" value="Tag" style="rounded=0;whiteSpace=wrap;html=1;" vertex="1" parent="1">
          <mxGeometry x="100" y="420" width="100" height="30" as="geometry" />
        </mxCell>
        <mxCell id="pGwgiXR_y_PXAJWsyPDp-20" value="Tag" style="rounded=0;whiteSpace=wrap;html=1;" vertex="1" parent="1">
          <mxGeometry x="100" y="460" width="100" height="30" as="geometry" />
        </mxCell>
        <mxCell id="pGwgiXR_y_PXAJWsyPDp-21" value="Exercise Bank" style="text;html=1;align=center;verticalAlign=middle;whiteSpace=wrap;rounded=0;fontSize=20;" vertex="1" parent="1">
          <mxGeometry x="285" y="110" width="140" height="30" as="geometry" />
        </mxCell>
        <mxCell id="pGwgiXR_y_PXAJWsyPDp-22" value="Exercise Bank&lt;span style=&quot;color: rgba(0, 0, 0, 0); font-family: monospace; font-size: 0px; text-align: start; text-wrap-mode: nowrap;&quot;&gt;%3CmxGraphModel%3E%3Croot%3E%3CmxCell%20id%3D%220%22%2F%3E%3CmxCell%20id%3D%221%22%20parent%3D%220%22%2F%3E%3CmxCell%20id%3D%222%22%20value%3D%22Tag%22%20style%3D%22rounded%3D0%3BwhiteSpace%3Dwrap%3Bhtml%3D1%3B%22%20vertex%3D%221%22%20parent%3D%221%22%3E%3CmxGeometry%20x%3D%22100%22%20y%3D%22420%22%20width%3D%22100%22%20height%3D%2230%22%20as%3D%22geometry%22%2F%3E%3C%2FmxCell%3E%3C%2Froot%3E%3C%2FmxGraphModel%3E&lt;/span&gt;" style="rounded=0;whiteSpace=wrap;html=1;" vertex="1" parent="1">
          <mxGeometry x="90" y="80" width="100" height="20" as="geometry" />
        </mxCell>
        <mxCell id="pGwgiXR_y_PXAJWsyPDp-23" value="Workout" style="rounded=0;whiteSpace=wrap;html=1;" vertex="1" parent="1">
          <mxGeometry x="190" y="80" width="100" height="20" as="geometry" />
        </mxCell>
        <mxCell id="pGwgiXR_y_PXAJWsyPDp-24" value="Statistics" style="rounded=0;whiteSpace=wrap;html=1;" vertex="1" parent="1">
          <mxGeometry x="290" y="80" width="100" height="20" as="geometry" />
        </mxCell>
        <mxCell id="pGwgiXR_y_PXAJWsyPDp-25" value="Settings" style="rounded=0;whiteSpace=wrap;html=1;" vertex="1" parent="1">
          <mxGeometry x="390" y="80" width="100" height="20" as="geometry" />
        </mxCell>
        <mxCell id="pGwgiXR_y_PXAJWsyPDp-26" value="Squat (legs, compound)" style="rounded=0;whiteSpace=wrap;html=1;align=left;" vertex="1" parent="1">
          <mxGeometry x="230" y="180" width="210" height="20" as="geometry" />
        </mxCell>
        <mxCell id="pGwgiXR_y_PXAJWsyPDp-27" value="E" style="rounded=0;whiteSpace=wrap;html=1;" vertex="1" parent="1">
          <mxGeometry x="440" y="180" width="20" height="20" as="geometry" />
        </mxCell>
        <mxCell id="pGwgiXR_y_PXAJWsyPDp-31" value="Logo" style="ellipse;whiteSpace=wrap;html=1;" vertex="1" parent="1">
          <mxGeometry x="100" y="110" width="120" height="60" as="geometry" />
        </mxCell>
      </root>
    </mxGraphModel>
  </diagram>
</mxfile>
